<?xml version="1.0" standalone="no"?>
<!DOCTYPE svg PUBLIC "-//W3C//DTD SVG 20010904//EN"
 "http://www.w3.org/TR/2001/REC-SVG-20010904/DTD/svg10.dtd">
<svg version="1.0" xmlns="http://www.w3.org/2000/svg"
 width="518.000000pt" height="166.000000pt" viewBox="0 0 518.000000 166.000000"
 preserveAspectRatio="xMidYMid meet">

<g transform="translate(0.000000,166.000000) scale(0.100000,-0.100000)"
fill="#000000" stroke="none">
<path d="M701 1238 c-1 -47 2 -56 14 -52 18 7 18 27 0 74 l-13 35 -1 -57z"/>
<path d="M4704 1119 c-54 -54 -93 -99 -86 -99 17 0 205 187 194 194 -4 3 -53
-40 -108 -95z"/>
<path d="M1651 1194 c0 -11 3 -14 6 -6 3 7 2 16 -1 19 -3 4 -6 -2 -5 -13z"/>
<path d="M4483 1140 c0 -41 2 -58 4 -37 2 20 2 54 0 75 -2 20 -4 3 -4 -38z"/>
<path d="M774 1175 c20 -85 38 -137 47 -128 6 6 4 20 -6 39 -8 16 -15 36 -15
44 -1 8 -7 26 -16 40 -11 19 -14 21 -10 5z"/>
<path d="M1860 1103 c-47 -48 -72 -76 -55 -63 34 28 145 140 145 146 0 9 -9 1
-90 -83z"/>
<path d="M1052 1145 c-6 -14 -8 -25 -3 -25 4 0 13 11 19 25 6 14 8 25 3 25 -4
0 -13 -11 -19 -25z"/>
<path d="M4278 1093 c3 -40 1 -84 -2 -98 -8 -30 -44 -65 -68 -65 -10 0 -18 -4
-18 -10 0 -13 1 -13 41 4 58 25 69 46 69 137 0 51 -5 85 -13 93 -10 10 -11 -2
-9 -61z"/>
<path d="M520 1108 c-68 -41 -145 -138 -110 -138 10 0 140 130 140 141 0 3 15
11 33 17 22 7 26 10 12 11 -12 1 -45 -14 -75 -31z"/>
<path d="M2180 1120 c-8 -5 -12 -11 -10 -14 3 -2 14 2 24 10 22 15 10 19 -14
4z"/>
<path d="M2308 1123 c6 -2 18 -2 25 0 6 3 1 5 -13 5 -14 0 -19 -2 -12 -5z"/>
<path d="M2898 1123 c12 -2 32 -2 45 0 12 2 2 4 -23 4 -25 0 -35 -2 -22 -4z"/>
<path d="M3930 981 l0 -150 -52 -4 -53 -3 58 -2 57 -2 0 149 c0 134 2 150 18
154 13 4 11 5 -5 6 -23 1 -23 0 -23 -148z"/>
<path d="M4033 1123 c15 -2 37 -2 50 0 12 2 0 4 -28 4 -27 0 -38 -2 -22 -4z"/>
<path d="M2770 1105 c-7 -9 -8 -15 -2 -15 5 0 12 7 16 15 3 8 4 15 2 15 -2 0
-9 -7 -16 -15z"/>
<path d="M1025 1099 c-4 -6 -5 -12 -2 -15 2 -3 7 2 10 11 7 17 1 20 -8 4z"/>
<path d="M3174 1010 c0 -58 1 -81 3 -52 2 28 2 76 0 105 -2 28 -3 5 -3 -53z"/>
<path d="M3459 1088 c-6 -13 -23 -42 -36 -65 -14 -24 -21 -43 -16 -43 5 0 20
21 33 48 13 26 30 52 38 58 10 7 12 13 4 18 -6 4 -16 -4 -23 -16z"/>
<path d="M650 1064 c-34 -17 -40 -23 -23 -24 12 0 25 4 28 10 3 5 20 13 38 18
21 5 26 10 16 14 -8 3 -35 -5 -59 -18z"/>
<path d="M539 1051 c-42 -29 -99 -102 -113 -147 -5 -17 -27 -27 -108 -50 -55
-15 -96 -30 -90 -32 6 -2 41 6 77 17 72 23 130 27 140 11 3 -5 21 -10 39 -10
25 0 54 16 122 67 48 37 83 68 77 70 -7 3 -43 -19 -80 -47 -37 -28 -69 -47
-70 -43 -2 5 -21 7 -43 5 -50 -5 -51 8 -7 57 17 21 42 49 54 64 13 15 30 27
38 27 8 0 15 9 15 20 0 11 -1 20 -3 20 -2 0 -23 -13 -48 -29z"/>
<path d="M744 1055 c11 -8 25 -15 30 -15 6 0 2 7 -8 15 -11 8 -25 15 -30 15
-6 0 -2 -7 8 -15z"/>
<path d="M1653 1010 c0 -25 2 -35 4 -22 2 12 2 32 0 45 -2 12 -4 2 -4 -23z"/>
<path d="M4482 938 l-2 -98 -51 0 c-31 0 -48 -4 -44 -10 9 -15 95 -12 101 3 3
8 3 56 1 108 l-3 94 -2 -97z"/>
<path d="M960 988 c0 -23 39 -78 55 -78 15 0 10 23 -15 71 -12 21 -40 26 -40
7z"/>
<path d="M710 982 c0 -10 14 -23 114 -101 45 -35 56 -50 56 -72 0 -29 -13 -38
-25 -19 -3 6 -14 10 -23 10 -11 0 -6 -7 15 -21 32 -20 33 -20 53 -1 l20 19
-34 44 c-19 25 -49 56 -67 70 -19 14 -51 38 -71 53 -21 16 -38 24 -38 18z"/>
<path d="M3359 902 l-35 -67 -55 -6 -54 -6 58 -1 c47 -2 59 1 64 16 4 9 9 19
12 22 10 8 53 101 50 105 -2 2 -20 -27 -40 -63z"/>
<path d="M387 945 c-13 -12 -15 -21 -8 -28 15 -15 34 5 29 29 -3 17 -4 17 -21
-1z"/>
<path d="M1652 910 c0 -19 2 -27 5 -17 2 9 2 25 0 35 -3 9 -5 1 -5 -18z"/>
<path d="M710 907 c0 -21 33 -47 49 -38 9 6 5 14 -18 30 -23 17 -31 19 -31 8z"/>
<path d="M611 866 c-30 -23 -58 -52 -62 -64 -11 -28 -23 -28 -36 0 -8 19 -10
19 -16 5 -9 -23 26 -41 53 -27 11 6 20 18 20 26 0 8 20 24 44 35 24 10 51 30
60 44 25 38 0 31 -63 -19z"/>
<path d="M3110 840 c-9 -6 -10 -10 -3 -10 6 0 15 5 18 10 8 12 4 12 -15 0z"/>
<path d="M4785 841 c4 -7 -11 -11 -45 -11 -32 0 -49 -4 -45 -10 7 -12 125 -14
125 -2 0 4 -9 13 -21 20 -12 8 -18 9 -14 3z"/>
<path d="M710 805 c1 -26 2 -28 11 -12 8 14 8 22 0 30 -8 8 -11 3 -11 -18z"/>
<path d="M1553 823 c9 -2 23 -2 30 0 6 3 -1 5 -18 5 -16 0 -22 -2 -12 -5z"/>
<path d="M1618 823 c7 -3 16 -2 19 1 4 3 -2 6 -13 5 -11 0 -14 -3 -6 -6z"/>
<path d="M1858 823 c6 -2 18 -2 25 0 6 3 1 5 -13 5 -14 0 -19 -2 -12 -5z"/>
<path d="M1913 823 c9 -2 23 -2 30 0 6 3 -1 5 -18 5 -16 0 -22 -2 -12 -5z"/>
<path d="M2078 823 c12 -2 30 -2 40 0 9 3 -1 5 -23 4 -22 0 -30 -2 -17 -4z"/>
<path d="M2488 823 c12 -2 32 -2 45 0 12 2 2 4 -23 4 -25 0 -35 -2 -22 -4z"/>
<path d="M2822 823 c48 -2 129 -2 180 0 51 1 12 3 -87 3 -99 0 -141 -2 -93 -3z"/>
<path d="M3673 823 c15 -2 39 -2 55 0 15 2 2 4 -28 4 -30 0 -43 -2 -27 -4z"/>
<path d="M4203 823 c15 -2 39 -2 55 0 15 2 2 4 -28 4 -30 0 -43 -2 -27 -4z"/>
<path d="M1300 800 l-25 -8 27 -1 c15 -1 30 4 33 9 7 11 0 11 -35 0z"/>
<path d="M411 788 c1 -7 5 -24 9 -38 8 -24 8 -24 9 7 1 17 -3 35 -9 38 -5 3
-10 0 -9 -7z"/>
<path d="M1195 770 c-13 -6 -15 -9 -5 -9 8 0 22 4 30 9 18 12 2 12 -25 0z"/>
<path d="M1070 736 c-66 -20 -78 -27 -96 -59 -26 -46 -58 -82 -108 -118 l-39
-29 35 0 c31 0 43 8 86 55 28 31 57 71 64 91 11 31 19 36 68 50 66 18 102 33
80 33 -8 0 -49 -11 -90 -23z"/>
<path d="M710 721 c0 -25 6 -27 13 -6 4 8 2 17 -3 20 -6 4 -10 -3 -10 -14z"/>
<path d="M381 688 c11 -38 33 -63 48 -54 15 9 -24 86 -44 86 -11 0 -12 -7 -4
-32z"/>
<path d="M862 644 l-42 -74 -132 0 c-72 0 -129 -3 -125 -6 6 -6 57 -8 184 -5
72 1 85 4 109 26 15 14 32 25 38 25 6 0 4 4 -3 9 -13 8 -12 14 3 44 38 69 10
52 -32 -19z"/>
<path d="M440 700 c0 -8 5 -22 10 -30 9 -13 10 -13 10 0 0 8 -5 22 -10 30 -9
13 -10 13 -10 0z"/>
<path d="M1017 637 l-17 -32 20 24 c17 20 26 41 18 41 -2 0 -11 -15 -21 -33z"/>
<path d="M710 638 c0 -12 3 -17 8 -12 4 5 11 12 15 15 5 3 2 9 -7 12 -12 5
-16 0 -16 -15z"/>
<path d="M3680 650 c-8 -5 -11 -12 -7 -16 4 -4 13 -2 19 4 15 15 7 24 -12 12z"/>
<path d="M2932 585 c-6 -14 -8 -25 -4 -25 4 0 12 11 19 25 6 14 8 25 4 25 -4
0 -13 -11 -19 -25z"/>
<path d="M4784 576 c-21 -19 -37 -36 -34 -39 3 -3 23 13 45 34 49 48 42 51
-11 5z"/>
<path d="M955 559 c-22 -22 -52 -47 -68 -56 -16 -8 -26 -17 -23 -20 8 -8 68
32 105 72 47 50 34 53 -14 4z"/>
<path d="M1590 575 c0 -8 2 -15 4 -15 2 0 6 7 10 15 3 8 1 15 -4 15 -6 0 -10
-7 -10 -15z"/>
<path d="M1831 574 c0 -11 3 -14 6 -6 3 7 2 16 -1 19 -3 4 -6 -2 -5 -13z"/>
<path d="M2218 583 c-10 -2 -18 -9 -18 -14 0 -11 -3 -12 45 6 30 11 34 14 15
13 -14 0 -33 -2 -42 -5z"/>
<path d="M4101 556 c-19 -20 -22 -32 -18 -87 l3 -64 2 67 c2 59 5 69 28 87 15
12 22 21 17 21 -5 0 -20 -11 -32 -24z"/>
<path d="M2892 505 c-12 -25 -22 -51 -22 -58 1 -6 12 12 26 41 15 29 24 55 22
57 -2 3 -14 -16 -26 -40z"/>
<path d="M4270 483 c-3 -40 -1 -68 3 -64 4 4 7 37 5 72 l-3 64 -5 -72z"/>
<path d="M440 530 c-9 -6 -10 -10 -3 -10 6 0 15 5 18 10 8 12 4 12 -15 0z"/>
<path d="M592 500 c6 -22 14 -40 18 -40 4 0 3 18 -2 40 -6 22 -14 40 -18 40
-4 0 -3 -18 2 -40z"/>
<path d="M782 493 c-6 -27 -15 -59 -18 -72 -5 -16 -4 -22 4 -17 6 3 14 26 18
51 3 24 12 50 20 56 8 6 11 15 8 20 -11 19 -21 7 -32 -38z"/>
<path d="M642 518 c3 -7 13 -43 23 -80 10 -38 22 -68 26 -68 5 0 9 22 9 49 0
41 -4 51 -20 56 -25 8 -26 42 -2 48 10 3 5 5 -12 6 -19 1 -27 -3 -24 -11z"/>
<path d="M1588 470 c-1 -33 0 -60 5 -60 4 0 7 27 7 60 0 77 -7 77 -12 0z"/>
<path d="M368 490 c-51 -32 -59 -41 -30 -33 17 4 94 63 82 63 -3 0 -26 -14
-52 -30z"/>
<path d="M2215 497 c-11 -9 -15 -19 -10 -27 7 -11 10 -9 15 6 4 10 20 22 36
25 28 6 28 7 3 8 -14 0 -33 -5 -44 -12z"/>
<path d="M2293 417 c-48 -16 -40 -25 11 -13 25 6 42 14 40 18 -6 9 -8 9 -51
-5z"/>
<path d="M2836 414 c-17 -12 -17 -14 -4 -14 9 0 20 5 23 11 11 17 2 18 -19 3z"/>
<path d="M3295 410 c-3 -5 -1 -10 4 -10 6 0 11 5 11 10 0 6 -2 10 -4 10 -3 0
-8 -4 -11 -10z"/>
<path d="M3680 410 c-13 -8 -12 -10 3 -10 9 0 17 5 17 10 0 12 -1 12 -20 0z"/>
<path d="M4630 410 c-13 -8 -13 -10 2 -10 9 0 20 5 23 10 8 13 -5 13 -25 0z"/>
<path d="M4815 410 c-19 -8 -19 -9 3 -9 12 -1 22 4 22 9 0 6 -1 10 -2 9 -2 0
-12 -4 -23 -9z"/>
<path d="M741 334 c0 -11 3 -14 6 -6 3 7 2 16 -1 19 -3 4 -6 -2 -5 -13z"/>
<path d="M721 274 c0 -11 3 -14 6 -6 3 7 2 16 -1 19 -3 4 -6 -2 -5 -13z"/>
<path d="M708 230 c-7 -24 -3 -38 8 -28 3 4 4 17 2 30 l-3 23 -7 -25z"/>
</g>
</svg>
